<?xml version="1.0" encoding="UTF-8" standalone="no"?>
<svg
     xmlns:dc="http://purl.org/dc/elements/1.1/"
     xmlns:cc="http://creativecommons.org/ns#"
     xmlns:rdf="http://www.w3.org/1999/02/22-rdf-syntax-ns#"
     xmlns:svg="http://www.w3.org/2000/svg"
     xmlns="http://www.w3.org/2000/svg"
     version="1.1"
     id="svg21056"
     viewBox="0 0 300.00001 56.390969"
     height="56.390968"
     width="300">
    <defs
         id="defs21058" />
    <metadata
         id="metadata21061">
        <rdf:RDF>
            <cc:Work
                 rdf:about="">
                <dc:format>image/svg+xml</dc:format>
                <dc:type
                     rdf:resource="http://purl.org/dc/dcmitype/StillImage" />
                <dc:title></dc:title>
            </cc:Work>
        </rdf:RDF>
    </metadata>
    <g
         transform="translate(-194.73482,-707.92972)"
         id="layer1">
        <g
             transform="matrix(2.4605731,0,0,-2.4605731,267.04223,757.872)"
             id="g20934">
            <path
                 id="path20936"
                 style="fill:#000000;fill-opacity:1;fill-rule:nonzero;stroke:none"
                 d="m 0,0 c -1.38,0 -2,0.324 -2,1.963 l 0,13.64 c 0,1.631 0.52,1.835 1.9,1.835 l 0.87,0 0,1.685 -9.01,0 0,-1.685 0.97,0 c 1.29,0 1.89,-0.441 1.89,-1.835 l 0,-13.64 C -5.38,0.572 -6.13,0 -7.42,0 l -0.87,0 0,-1.682 9.12,0 L 0.83,0 0,0 Z" />
        </g>
        <g
             transform="matrix(2.4605731,0,0,-2.4605731,342.1879,757.872)"
             id="g20938">
            <path
                 id="path20940"
                 style="fill:#000000;fill-opacity:1;fill-rule:nonzero;stroke:none"
                 d="m 0,0 c -1.38,0 -2,0.324 -2,1.963 l 0,13.64 c 0,1.631 0.52,1.835 1.9,1.835 l 0.88,0 0,1.685 -9.01,0 0,-1.685 0.96,0 c 1.29,0 1.88,-0.441 1.88,-1.835 l 0,-13.64 C -5.39,0.572 -6.14,0 -7.41,0 l -0.88,0 0,-1.682 9.12,0 L 0.83,0 0,0 Z" />
        </g>
        <g
             transform="matrix(2.4605731,0,0,-2.4605731,273.78396,710.81846)"
             id="g20942">
            <path
                 id="path20944"
                 style="fill:#000000;fill-opacity:1;fill-rule:nonzero;stroke:none"
                 d="m 0,0 0,-5.482 1.56,0 0,1.142 c 0,1.38 0.5,2.655 2.37,2.655 l 3.18,0 0,-15.475 c 0,-1.391 -0.83,-1.963 -2.12,-1.963 l -0.94,0 0,-1.682 9.5,0 0,1.682 -0.94,0 c -1.28,0 -2.11,0.572 -2.11,1.963 l 0,15.475 3.17,0 c 1.87,0 2.37,-1.275 2.37,-2.655 l 0,-1.142 1.56,0 L 17.6,0 0,0 Z" />
        </g>
        <g
             transform="matrix(2.4605731,0,0,-2.4605731,386.23191,748.11632)"
             id="g20946">
            <path
                 id="path20948"
                 style="fill:#000000;fill-opacity:1;fill-rule:nonzero;stroke:none"
                 d="m 0,0 0,-0.368 c 0,-1.728 -0.48,-3.597 -4.17,-3.597 l -6.4,0 11.91,17.439 0,1.684 -15.73,0 0,-5.633 1.59,0 0,0.69 c 0,1.775 0.82,3.259 3.23,3.259 1.46,0 6.68,-0.017 6.68,-0.017 l -11.87,-17.422 0,-1.681 16.32,0 L 1.56,0 0,0 Z" />
        </g>
        <g
             transform="matrix(2.4605731,0,0,-2.4605731,433.64765,748.04889)"
             id="g20950">
            <path
                 id="path20952"
                 style="fill:#000000;fill-opacity:1;fill-rule:nonzero;stroke:none"
                 d="m 0,0 0,-0.556 c 0,-1.855 -0.91,-3.436 -3.21,-3.436 l -6.18,0 0,8.151 3.72,0 c 1.5,0 1.84,-1.265 1.84,-2.16 l 0,-0.866 1.63,0 0,7.799 -1.63,0 0,-0.694 c 0,-0.89 -0.34,-2.156 -1.84,-2.156 l -3.72,0 0,7.364 5.9,0 c 2.95,0 3.02,-2.464 3.02,-3.378 l 0,-0.449 1.57,0 0,5.512 -16.55,0 0,-1.685 0.37,0 c 1.43,0 2.17,-0.174 2.17,-1.464 l 0,-14.255 c 0,-1.499 -0.99,-1.719 -1.91,-1.719 l -0.53,0 0,-1.682 16.84,0 L 1.49,0 0,0 Z" />
        </g>
        <g
             transform="matrix(2.4605731,0,0,-2.4605731,475.50198,710.81846)"
             id="g20954">
            <path
                 id="path20956"
                 style="fill:#000000;fill-opacity:1;fill-rule:nonzero;stroke:none"
                 d="m 0,0 0,-1.685 0.47,0 c 1.64,0 2.23,-0.558 2.23,-1.971 L 2.7,-15.197 -7.71,0 l -5.46,0 0,-1.685 0.51,0 c 1.01,0 1.8,-0.411 1.8,-2.012 l 0,-13.612 c 0,-1.379 -0.99,-1.814 -1.75,-1.814 l -0.7,0 0,-1.682 7.09,0 0,1.682 -0.67,0 c -0.76,0 -1.9,0.194 -1.9,1.814 l 0,12.715 11.12,-16.211 2.43,0 0,17.149 c 0,1.413 0.58,1.971 2.22,1.971 l 0.43,0 L 7.41,0 0,0 Z" />
        </g>
        <g
             transform="matrix(2.4605731,0,0,-2.4605731,224.20365,759.27305)"
             id="g20958">
            <path
                 id="path20960"
                 style="fill:#000000;fill-opacity:1;fill-rule:nonzero;stroke:none"
                 d="m 0,0 c -4.14,0 -7.42,3.945 -7.42,9.284 0,5.787 2.36,9.532 7.02,9.532 3.86,0 5.39,-1.983 5.99,-4.456 l 1.47,0 c -0.18,1.468 -0.44,4.024 -0.42,4.592 -1.29,0.272 -3.69,1.508 -7.28,1.508 -6.35,0 -10.93,-4.344 -10.93,-11.176 0,-6.678 5.29,-10.929 10.87,-10.929 2.58,0 5.14,0.603 7.3,2.214 0.1,0.535 0.46,2.097 0.83,3.356 l -1.61,0 C 4.62,1.075 2.4,0 0,0" />
        </g>
    </g>
</svg>
